<?xml version="1.0" standalone="no"?><!DOCTYPE svg PUBLIC "-//W3C//DTD SVG 1.1//EN" "http://www.w3.org/Graphics/SVG/1.1/DTD/svg11.dtd"><svg class="icon" width="200px" height="200.00px" viewBox="0 0 1024 1024" version="1.1" xmlns="http://www.w3.org/2000/svg"><path fill="#e6e6e6" d="M747.733333 689.493333a42.666667 42.666667 0 0 1-85.333333 0V399.786667A129.493333 129.493333 0 0 0 533.333333 270.506667h-42.666666a129.493333 129.493333 0 0 0-128 129.28v289.706666a42.666667 42.666667 0 0 1-85.333334 0v-163.84h-21.333333v163.84a64 64 0 0 0 128 0v-140.16h45.226667v-21.333333H384v-22.826667h45.226667v-21.333333H384v-21.333333h45.226667v-21.333334H384v-41.386666a108.16 108.16 0 0 1 106.666667-107.946667h42.666666a108.16 108.16 0 0 1 107.946667 107.946667v40.746666h-42.666667v21.333334h42.666667v21.333333h-42.666667v21.333333h42.666667v22.826667h-42.666667v21.333333h42.666667v140.16a64 64 0 0 0 128 0v-162.773333h-21.333333zM747.733333 413.44h21.333334v70.613333h-21.333334zM254.933333 413.44h21.333334v69.973333h-21.333334z"  /><path fill="#e6e6e6" d="M534.4 615.893333V376.533333h-42.666667v239.573334a64 64 0 1 0 42.666667 0z"  /></svg>