<?xml version="1.0" standalone="no"?><!DOCTYPE svg PUBLIC "-//W3C//DTD SVG 1.1//EN" "http://www.w3.org/Graphics/SVG/1.1/DTD/svg11.dtd"><svg class="icon" width="200px" height="200.00px" viewBox="0 0 1024 1024" version="1.1" xmlns="http://www.w3.org/2000/svg"><path fill="#e6e6e6" d="M521.386667 233.173333a279.466667 279.466667 0 0 0-242.56 141.44l-55.253334-21.333333 11.306667 177.066667L359.04 405.333333 298.666667 382.506667a257.493333 257.493333 0 1 1-10.666667 238.72 11.093333 11.093333 0 0 0-14.293333-5.12 10.88 10.88 0 0 0-5.12 14.293333 279.04 279.04 0 1 0 252.8-397.226667z"  /><path fill="#e6e6e6" d="M604.16 512a85.333333 85.333333 0 1 0-85.333333 85.333333 85.333333 85.333333 0 0 0 85.333333-85.333333z"  /></svg>