<?xml version="1.0" standalone="no"?><!DOCTYPE svg PUBLIC "-//W3C//DTD SVG 1.1//EN" "http://www.w3.org/Graphics/SVG/1.1/DTD/svg11.dtd"><svg class="icon" width="200px" height="200.00px" viewBox="0 0 1024 1024" version="1.1" xmlns="http://www.w3.org/2000/svg"><path fill="#e6e6e6" d="M512 414.506667L585.173333 341.333333h23.04v-128h-192v128h22.4zM512 384l-42.666667-42.666667h85.333334z m-74.666667-149.333333h149.333334v85.333333h-149.333334zM818.346667 362.666667h-124.8v-42.026667L661.333333 347.52l-32.213333 26.666667L661.333333 401.066667l32.213334 26.88V384h124.8v-21.333333zM362.666667 401.066667l32.213333-26.88L362.666667 347.52l-32.213334-26.88V362.666667H205.653333v21.333333h124.8v43.946667L362.666667 401.066667zM522.666667 427.733333h-21.333334v21.333334h-149.333333V768h149.333333v42.666667h21.333334v-42.666667h149.333333V449.493333h-149.333333z m128 42.666667V746.666667h-128v-42.666667h-21.333334v42.666667h-128V470.826667h128v21.333333h21.333334v-21.333333z"  /><path fill="#e6e6e6" d="M501.333333 512.426667h21.333334v21.76h-21.333334zM501.333333 555.52h21.333334v85.546667h-21.333334zM501.333333 662.4h21.333334v21.12h-21.333334z"  /></svg>