<?xml version="1.0" standalone="no"?><!DOCTYPE svg PUBLIC "-//W3C//DTD SVG 1.1//EN" "http://www.w3.org/Graphics/SVG/1.1/DTD/svg11.dtd"><svg class="icon" width="200px" height="200.00px" viewBox="0 0 1024 1024" version="1.1" xmlns="http://www.w3.org/2000/svg"><path fill="#e6e6e6" d="M338.346667 374.826667a118.613333 118.613333 0 0 0-36.266667 231.466666v77.653334a35.2 35.2 0 0 0 34.986667 35.2h60.16a35.2 35.2 0 0 0 35.2-35.2v-71.893334h73.6l138.666666 70.613334V304.853333l-138.666666 69.973334z m157.866666 215.893333h-42.666666v-194.56h42.666666z m-256-97.28a97.28 97.28 0 0 1 97.28-97.28h71.466667v194.56h-70.613333a97.493333 97.493333 0 0 1-97.28-97.28z m170.666667 190.506667a13.866667 13.866667 0 0 1-13.866667 13.866666H337.066667a13.866667 13.866667 0 0 1-13.653334-13.866666v-68.053334h87.68z m213.333333-36.693334l-104.106666-52.266666v-203.093334l104.106666-52.266666zM804.266667 381.866667l-19.413334-8.96-43.946666 95.786666-43.733334-95.786666-19.413333 8.96 51.626667 112.64-51.626667 112.426666 19.413333 8.96 43.733334-95.786666 43.946666 95.786666 19.413334-8.96-51.626667-112.426666 51.626667-112.64z"  /></svg>