<?xml version="1.0" standalone="no"?><!DOCTYPE svg PUBLIC "-//W3C//DTD SVG 1.1//EN" "http://www.w3.org/Graphics/SVG/1.1/DTD/svg11.dtd"><svg class="icon" width="200px" height="200.00px" viewBox="0 0 1024 1024" version="1.1" xmlns="http://www.w3.org/2000/svg"><path fill="#e6e6e6" d="M361.813333 622.08L352.426667 654.222222a163.555556 163.555556 0 0 0 96.426666-2.844444l-10.808889 24.177778a118.328889 118.328889 0 0 0 123.164445-42.951112l-7.964445 45.511112a73.386667 73.386667 0 0 0 65.422223-21.333334l50.915555-71.964444-206.222222-132.266667s-75.093333 124.586667-164.693333 153.884445a106.951111 106.951111 0 0 0 63.146666 15.644444zM725.333333 529.351111l-93.866666-59.733333 85.333333-134.542222a33.28 33.28 0 1 0-56.888889-35.84l-85.333333 134.542222-95.004445-61.155556-28.444444 44.373334 245.76 156.728888zM286.72 711.68h450.844444v28.444444H286.72z"  /></svg>