<?xml version="1.0" standalone="no"?><!DOCTYPE svg PUBLIC "-//W3C//DTD SVG 1.1//EN" "http://www.w3.org/Graphics/SVG/1.1/DTD/svg11.dtd"><svg class="icon" width="200px" height="200.00px" viewBox="0 0 1024 1024" version="1.1" xmlns="http://www.w3.org/2000/svg"><path fill="#e6e6e6" d="M715.946667 388.266667v-150.613334h-23.04v150.613334H353.066667v-150.613334h-23.04v150.613334h-19.84v43.946666h64.64l149.12 149.333334v-0.213334l0.213333 0.213334 149.12-149.333334h62.506667V388.266667h-19.84zM481.92 622.293333h-53.76v-32.426666h-32.426667v-53.76h-21.333333v53.76h-32.426667v32.426666h-53.76v21.333334h53.76v32.426666h32.426667v53.76h21.333333v-53.76h32.426667v-32.426666h53.76v-21.333334zM566.4 688.426667h-21.76v-32.64h-21.333333v32.64H501.333333v21.973333h-32.853333v21.333333h32.853333v21.76h21.973334v32.853334h21.333333v-32.853334h21.76V731.733333h32.853333v-21.333333h-32.853333v-21.973333z"  /></svg>