<?xml version="1.0" standalone="no"?><!DOCTYPE svg PUBLIC "-//W3C//DTD SVG 1.1//EN" "http://www.w3.org/Graphics/SVG/1.1/DTD/svg11.dtd"><svg class="icon" width="200px" height="200.00px" viewBox="0 0 1024 1024" version="1.1" xmlns="http://www.w3.org/2000/svg"><path fill="#e6e6e6" d="M606.933333 507.093333h-21.76v-22.186666h-21.333333v22.186666h-20.693333v-22.186666h-21.333334v22.186666h-21.12v-22.186666h-21.333333v22.186666h-21.76v-22.186666h-21.333333v22.186666h-22.826667v-22.186666h-21.333333v43.52h236.16v-43.52h-21.333334v22.186666z"  /><path fill="#e6e6e6" d="M885.546667 501.333333h-105.6A268.373333 268.373333 0 0 0 522.666667 244.053333V128h-21.333334v116.693333A268.373333 268.373333 0 0 0 244.053333 501.333333H138.453333v21.333334h105.6A268.373333 268.373333 0 0 0 501.333333 779.946667V896h21.333334v-116.053333A268.373333 268.373333 0 0 0 779.946667 522.666667h105.6z m-126.933334 0h-36.693333a210.346667 210.346667 0 0 0-199.253333-199.253333v-36.693333A247.04 247.04 0 0 1 758.613333 501.333333z m-58.026666 21.333334a189.013333 189.013333 0 0 1-177.92 177.92V640h21.333333v-64h-64v64h21.333333v61.44a189.013333 189.013333 0 0 1-177.92-177.92h29.226667v-21.333333h-29.226667a189.013333 189.013333 0 0 1 177.92-177.92V426.666667h21.333334v-103.253334a189.013333 189.013333 0 0 1 177.92 177.92h-29.226667v21.333334zM501.333333 265.386667v36.693333a210.346667 210.346667 0 0 0-199.253333 199.253333h-36.693333A247.04 247.04 0 0 1 501.333333 265.386667zM265.386667 522.666667h36.693333a210.346667 210.346667 0 0 0 199.253333 199.253333v36.693333A247.04 247.04 0 0 1 265.386667 522.666667zM522.666667 758.613333v-36.693333a210.346667 210.346667 0 0 0 199.253333-199.253333h36.693333A247.04 247.04 0 0 1 522.666667 758.613333z"  /></svg>