<?xml version="1.0" standalone="no"?><!DOCTYPE svg PUBLIC "-//W3C//DTD SVG 1.1//EN" "http://www.w3.org/Graphics/SVG/1.1/DTD/svg11.dtd"><svg class="icon" width="200px" height="200.00px" viewBox="0 0 1024 1024" version="1.1" xmlns="http://www.w3.org/2000/svg"><path fill="#e6e6e6" d="M714.524444 428.657778h-58.595555v-122.88A50.346667 50.346667 0 0 0 605.582222 256h-298.666666A50.346667 50.346667 0 0 0 256 305.777778v298.951111A50.346667 50.346667 0 0 0 306.915556 654.222222H426.666667v60.302222A53.191111 53.191111 0 0 0 480.711111 768h233.813333A53.191111 53.191111 0 0 0 768 715.377778v-233.813334a52.906667 52.906667 0 0 0-53.475556-52.906666zM739.555556 715.377778a24.462222 24.462222 0 0 1-24.462223 24.746666H480.711111a24.746667 24.746667 0 0 1-24.746667-24.746666V654.222222h14.222223v-28.444444H455.111111v-14.222222h-28.444444v14.222222h-119.751111a21.902222 21.902222 0 0 1-21.902223-21.902222V305.777778a21.902222 21.902222 0 0 1 21.902223-21.902222h298.666666a21.902222 21.902222 0 0 1 21.902222 21.902222v122.88h-14.222222v28.444444h14.222222v14.222222h28.444445v-14.222222h58.595555a24.177778 24.177778 0 0 1 24.462223 24.462222zM517.973333 428.657778h47.786667v28.444444h-47.786667zM427.52 471.324444h28.444444v-14.222222h14.222223v-28.444444h-42.666667v42.666666zM427.52 518.257778h28.444444v46.933333h-28.444444zM517.973333 626.631111h47.786667v28.444445h-47.786667zM627.484444 626.631111h-14.222222v28.444445h42.666667v-42.666667h-28.444445v14.222222zM627.484444 518.257778h28.444445v46.933333h-28.444445z" /></svg>